HIERARCHY
ROOT Hips
{
	OFFSET 0.00000 0.00000 0.00000
	CHANNELS 6 Xposition Yposition Zposition Zrotation Yrotation Xrotation 
	JOINT LHipJoint
	{
		OFFSET 0 0 0
		CHANNELS 3 Zrotation Yrotation Xrotation
		JOINT LeftUpLeg
		{
			OFFSET 1.38615 -1.80049 0.80104
			CHANNELS 3 Zrotation Yrotation Xrotation
			JOINT LeftLeg
			{
				OFFSET 2.50172 -6.87341 0.00000
				CHANNELS 3 Zrotation Yrotation Xrotation
				JOINT LeftFoot
				{
					OFFSET 2.67523 -7.35014 0.00000
					CHANNELS 3 Zrotation Yrotation Xrotation
					JOINT LeftToeBase
					{
						OFFSET 0.17446 -0.47932 2.13155
						CHANNELS 3 Zrotation Yrotation Xrotation
						End Site
						{
							OFFSET 0.00000 -0.00000 1.10023
						}
					}
				}
			}
		}
	}
	JOINT RHipJoint
	{
		OFFSET 0 0 0
		CHANNELS 3 Zrotation Yrotation Xrotation
		JOINT RightUpLeg
		{
			OFFSET -1.18047 -1.80049 0.80104
			CHANNELS 3 Zrotation Yrotation Xrotation
			JOINT RightLeg
			{
				OFFSET -2.59789 -7.13765 0.00000
				CHANNELS 3 Zrotation Yrotation Xrotation
				JOINT RightFoot
				{
					OFFSET -2.62125 -7.20183 0.00000
					CHANNELS 3 Zrotation Yrotation Xrotation
					JOINT RightToeBase
					{
						OFFSET -0.31287 -0.85960 2.07814
						CHANNELS 3 Zrotation Yrotation Xrotation
						End Site
						{
							OFFSET -0.00000 -0.00000 1.11766
						}
					}
				}
			}
		}
	}
	JOINT LowerBack
	{
		OFFSET 0 0 0
		CHANNELS 3 Zrotation Yrotation Xrotation
		JOINT Spine
		{
			OFFSET -0.01587 2.16157 -0.12309
			CHANNELS 3 Zrotation Yrotation Xrotation
			JOINT Spine1
			{
				OFFSET 0.04727 2.16674 -0.03569
				CHANNELS 3 Zrotation Yrotation Xrotation
				JOINT Neck
				{
					OFFSET 0 0 0
					CHANNELS 3 Zrotation Yrotation Xrotation
					JOINT Neck1
					{
						OFFSET -0.08586 1.60335 0.32783
						CHANNELS 3 Zrotation Yrotation Xrotation
						JOINT Head
						{
							OFFSET 0.07583 1.65857 -0.31618
							CHANNELS 3 Zrotation Yrotation Xrotation
							End Site
							{
								OFFSET 0.03386 1.69434 -0.14584
							}
						}
					}
				}
				JOINT LeftShoulder
				{
					OFFSET 0 0 0
					CHANNELS 3 Zrotation Yrotation Xrotation
					JOINT LeftArm
					{
						OFFSET 3.17393 1.01901 -0.52897
						CHANNELS 3 Zrotation Yrotation Xrotation
						JOINT LeftForeArm
						{
							OFFSET 5.25287 -0.00000 -0.00000
							CHANNELS 3 Zrotation Yrotation Xrotation
							JOINT LeftHand
							{
								OFFSET 3.51014 -0.00000 0.00000
								CHANNELS 3 Zrotation Yrotation Xrotation
								JOINT LeftFingerBase
								{
									OFFSET 0 0 0
									CHANNELS 3 Zrotation Yrotation Xrotation
									JOINT LeftHandIndex1
									{
										OFFSET 0.70618 -0.00000 -0.00000
										CHANNELS 3 Zrotation Yrotation Xrotation
										End Site
										{
											OFFSET 0.56934 -0.00000 -0.00000
										}
									}
								}
								JOINT LThumb
								{
									OFFSET 0 0 0
									CHANNELS 3 Zrotation Yrotation Xrotation
									End Site
									{
										OFFSET 0.57803 -0.00000 0.57803
									}
								}
							}
						}
					}
				}
				JOINT RightShoulder
				{
					OFFSET 0 0 0
					CHANNELS 3 Zrotation Yrotation Xrotation
					JOINT RightArm
					{
						OFFSET -2.99471 1.26495 -0.61125
						CHANNELS 3 Zrotation Yrotation Xrotation
						JOINT RightForeArm
						{
							OFFSET -5.28721 -0.00000 -0.00000
							CHANNELS 3 Zrotation Yrotation Xrotation
							JOINT RightHand
							{
								OFFSET -3.50544 -0.00000 0.00000
								CHANNELS 3 Zrotation Yrotation Xrotation
								JOINT RightFingerBase
								{
									OFFSET 0 0 0
									CHANNELS 3 Zrotation Yrotation Xrotation
									JOINT RightHandIndex1
									{
										OFFSET -0.88500 -0.00000 -0.00000
										CHANNELS 3 Zrotation Yrotation Xrotation
										End Site
										{
											OFFSET -0.71351 -0.00000 -0.00000
										}
									}
								}
								JOINT RThumb
								{
									OFFSET 0 0 0
									CHANNELS 3 Zrotation Yrotation Xrotation
									End Site
									{
										OFFSET -0.72440 -0.00000 0.72440
									}
								}
							}
						}
					}
				}
			}
		}
	}
}
MOTION
Frames: 14
Frame Time: 0.142857
0.00 0.00 0.00 0 0 0 0 0 0 -21 0 0 0 0 0 0 0 0 0 0 0 0 0 0 21 0 0 0 0 0 0 0 0 0 0 0 0 0 0 0 0 0 0 0 0 0 0 -16 0 0 21 0 0 11 0 0 0 -8 0 0 0 0 0 0 0 0 0 0 0 0 0 0 0 0 0 0 0 0 8 0 0 0 0 0 0 0 0 0 0 0 0 0 0 0 0 0
0.00 0.00 0.00 179.7590 -2.4769 -172.8890 0.0000 0.0000 0.0000 -19.6437 0.0482 3.9060 3.9344 12.0726 35.9895 0.0735 -9.5128 14.7460 0.9937 -6.3444 -17.7869 0.0000 0.0000 0.0000 18.6238 10.5519 -32.1565 -3.7113 -11.7660 34.9092 -0.2677 0.5563 -9.5915 -0.0297 1.1128 -3.0592 -5.4407 -1.2307 -2.5192 1.5814 -1.5089 0.0142 4.6296 -0.8060 1.6125 -12.0277 -6.9741 -22.9572 8.9481 -7.7140 23.3494 4.0679 -3.2459 12.3948 -0.0000 0.0000 0.0000 -84.5501 -6.5025 11.0553 10.7610 -17.9209 -1.7016 -0.0000 -0.0000 13.0401 8.4260 41.9509 5.6552 -7.1250 0.0000 -0.0000 -39.8459 68.2875 -23.6649 -0.0000 0.0000 0.0000 73.8034 8.4102 -0.8652 -9.4786 15.9198 -1.3283 0.0000 0.0000 34.7044 6.9890 0.3963 0.0486 7.1250 -0.0000 -0.0000 25.5605 -28.9690 11.0143
0.00 0.00 0.00 183.0200 -3.1479 -173.1430 0.0000 0.0000 0.0000 -14.9059 -3.0497 -6.6688 8.3714 16.3857 53.8896 1.3085 -6.5793 24.8956 0.0206 0.9257 2.5443 0.0000 0.0000 0.0000 23.8152 10.1646 -26.9768 -3.6411 -11.6668 34.5632 -0.5240 -0.0593 -13.6995 -0.0500 1.4433 -3.9696 -2.0962 -0.9767 -1.3271 2.9379 -1.3667 0.8233 4.1636 -0.7521 1.7108 -11.1510 -6.7423 -24.0413 7.6684 -7.2560 22.1488 3.4622 -3.1517 11.9749 0.0000 0.0000 0.0000 -86.9100 1.2608 5.8380 8.9587 -15.0947 -1.1894 -0.0000 -0.0000 22.5750 -1.9601 41.4482 -1.2978 -7.1250 0.0000 -0.0000 -48.9811 64.8221 -26.3228 0.0000 0.0000 0.0000 77.9083 -5.4869 -24.5691 -7.0294 11.9676 -0.7377 0.0000 0.0000 64.8854 3.2269 6.7083 0.3773 7.1250 -0.0000 -0.0000 21.6623 -23.2746 12.2085
0.00 0.00 0.00 183.8380 -1.5267 -173.1650 0.0000 0.0000 0.0000 -13.2975 -2.2606 -17.6275 11.8059 18.3074 65.3723 0.0972 -6.1408 10.9992 0.4551 -4.3277 -12.0005 0.0000 0.0000 0.0000 26.1831 8.1786 -20.6952 -3.0955 -10.8481 31.7692 -0.8037 1.8842 -16.4048 -0.0373 1.2468 -3.4282 -0.6506 -0.3881 -1.2266 3.1558 -0.6899 1.8822 3.5900 -0.4408 2.6694 -10.4986 -6.0572 -23.0957 8.0293 -6.6749 20.1314 3.5696 -2.8286 10.9591 -0.0000 0.0000 0.0000 -88.3848 11.2895 10.7201 10.6044 -17.6794 -1.6538 -0.0000 -0.0000 19.3497 -6.5490 39.7592 -4.1993 -7.1250 0.0000 -0.0000 -50.6364 62.4324 -24.6882 -0.0000 0.0000 0.0000 81.6857 -21.1820 -20.5960 -7.5425 12.8085 -0.8478 0.0000 0.0000 53.7537 2.3054 6.2698 0.2519 7.1250 -0.0000 -0.0000 21.0970 -23.6949 11.6199
0.00 0.00 0.00 184.9810 3.4628 -172.0310 0.0000 0.0000 0.0000 -11.8441 -0.7389 -33.7540 10.1288 17.4817 59.9181 -0.0524 -8.5050 -4.8663 0.0831 -1.8594 -5.1174 0.0000 0.0000 0.0000 28.1029 6.1561 -12.0393 -2.4842 -9.8092 28.3609 -1.4630 6.1118 -21.6860 -0.0879 1.9122 -5.2629 1.7624 0.0197 -1.0062 2.6781 0.0422 2.4660 1.7716 0.0857 3.0968 -10.0755 -4.6890 -21.4147 8.5928 -5.1448 18.8287 3.9487 -2.0656 10.0220 0.0000 0.0000 0.0000 -91.8568 22.2157 5.9440 11.4979 -19.0473 -1.9353 -0.0000 -0.0000 13.5403 -7.7005 38.4115 -4.8021 -7.1250 0.0000 -0.0000 -49.8446 61.2284 -22.7886 0.0000 0.0000 0.0000 83.2621 -38.4649 -17.0038 -8.4460 14.2733 -1.0594 0.0000 0.0000 35.7336 3.1218 4.1730 0.2274 7.1250 -0.0000 -0.0000 22.0282 -25.6332 11.1302
0.00 0.00 0.00 186.1330 7.3028 -170.4600 0.0000 0.0000 0.0000 -10.5824 -1.1262 -38.6271 5.8415 14.2729 44.3421 0.1627 -5.0140 -7.4811 0.1513 -2.5061 -6.9066 0.0000 0.0000 0.0000 28.8046 6.0406 -7.2140 -1.9498 -8.7608 25.0498 -1.6291 7.5740 -22.8597 -0.0770 1.7902 -4.9261 2.8323 0.9648 -0.4270 2.3773 1.3138 2.6981 0.9013 0.7543 3.0184 -9.3281 -3.9526 -21.8340 8.2468 -4.2221 17.4698 3.8097 -1.6347 9.4923 0.0000 -0.0000 0.0000 -91.7326 20.6777 3.0237 10.5619 -17.6137 -1.6409 -0.0000 -0.0000 17.1806 -10.5413 40.7370 -6.9239 -7.1250 0.0000 -0.0000 -55.5450 61.9971 -27.3211 0.0000 -0.0000 0.0000 84.0998 -38.8940 -19.9647 -8.6309 14.5702 -1.1054 0.0000 0.0000 27.4032 1.6182 -1.3745 -0.0388 7.1250 -0.0000 -0.0000 22.0623 -30.8271 8.1901
0.00 0.00 0.00 186.9340 9.1940 -168.6710 0.0000 0.0000 0.0000 -8.4851 -4.1780 -38.0691 2.3313 9.5246 27.4505 0.1390 -0.0779 -7.0136 0.6643 -5.2125 -14.5156 0.0000 0.0000 0.0000 29.0644 5.8555 -4.1599 -1.5649 -7.8939 22.3922 -1.7571 8.1154 -23.7543 -0.1830 2.7557 -7.5993 2.7401 1.4636 -0.7494 2.1806 1.9556 2.4153 0.7738 1.0613 2.9158 -8.8225 -3.4495 -22.2864 7.9573 -3.5876 17.2994 3.7132 -1.3331 9.4335 -0.0000 -0.0000 0.0000 -90.2718 17.7327 5.1908 10.2521 -17.1330 -1.5484 -0.0000 -0.0000 17.2538 -7.6452 39.7045 -4.9011 -7.1250 0.0000 -0.0000 -51.5411 62.1061 -24.8690 -0.0000 -0.0000 0.0000 84.4818 -35.0636 -20.2352 -8.4194 14.2304 -1.0528 0.0000 0.0000 30.9265 3.9643 -1.1168 -0.0774 7.1250 -0.0000 -0.0000 23.7396 -30.4884 9.1300
0.00 0.00 0.00 185.5220 7.0851 -169.1480 0.0000 0.0000 0.0000 -13.9902 -5.4432 -39.5637 3.0787 10.8214 31.6797 -0.0036 1.1680 -0.9449 0.0312 -1.1411 -3.1370 0.0000 0.0000 0.0000 24.3011 0.9689 4.7638 -3.1502 -10.9343 32.0587 -0.3778 5.7802 -11.0563 -1.2848 7.1828 -20.2580 -0.8141 1.2734 -1.0329 1.7915 1.7245 0.0704 2.3172 0.8692 0.5718 -8.1939 -1.6924 -23.5710 3.1906 -0.0656 21.0275 2.5056 -0.2312 10.6742 0.0000 0.0000 0.0000 -85.3351 -10.2139 21.6092 10.1376 -16.9545 -1.5148 -0.0000 -0.0000 15.5814 7.1621 40.5185 4.6672 -7.1250 0.0000 -0.0000 -38.7330 66.8333 -21.6934 0.0000 0.0000 0.0000 79.6469 12.2851 1.0660 -10.5912 17.6589 -1.6498 0.0000 0.0000 54.1489 1.5817 4.6357 0.1279 7.1250 -0.0000 -0.0000 20.8601 -25.2315 10.6656
0.00 0.00 0.00 182.6950 6.0053 -170.7360 0.0000 0.0000 0.0000 -19.0715 -3.6802 -35.5053 3.2987 11.1636 32.8335 0.0720 -1.5495 -4.7649 0.0300 -1.1179 -3.0733 0.0000 0.0000 0.0000 20.2940 2.0169 -2.5613 -6.6503 -15.0302 47.5388 -0.0653 0.9527 5.2760 -0.1298 2.3220 -6.3963 -3.2786 1.3712 -1.1857 1.1440 1.8704 0.1027 3.0424 0.9237 0.6269 -8.7978 -1.9317 -24.5324 3.1138 0.0401 22.9272 2.6410 -0.2544 11.5647 -0.0000 0.0000 0.0000 -85.0130 -17.1613 32.0330 11.9660 -19.7537 -2.0908 -0.0000 -0.0000 10.7257 4.1727 39.9438 2.6818 -7.1250 0.0000 -0.0000 -40.8309 65.5257 -21.8409 -0.0000 0.0000 0.0000 74.4763 25.5432 4.2928 -11.8946 19.6464 -2.0667 0.0000 0.0000 43.2559 -4.3338 5.7010 -0.4313 7.1250 -0.0000 -0.0000 16.4795 -24.2574 8.6001
0.00 0.00 0.00 180.5070 4.0930 -172.5300 0.0000 0.0000 0.0000 -23.3571 0.0326 -30.0310 3.1476 10.9303 32.0452 0.1920 -5.9758 -8.2704 0.0000 -0.0181 -0.0497 0.0000 0.0000 0.0000 17.2216 1.2274 -12.2547 -11.4600 -18.1529 64.2665 0.1287 -7.1292 0.8548 -0.0170 0.8431 -2.3171 -4.5778 1.6309 -0.4654 0.4952 2.1969 -0.1309 3.0789 1.1034 -0.0651 -9.5957 -1.9376 -23.6767 3.7991 -0.5734 23.3968 2.8862 -0.7605 11.6183 -0.0000 0.0000 0.0000 -83.8306 -22.4541 43.2421 17.1287 -27.0271 -4.1456 -0.0000 -0.0000 5.2582 6.1462 37.9056 3.7850 -7.1250 0.0000 -0.0000 -35.9784 64.5203 -18.0973 -0.0000 0.0000 0.0000 65.9044 39.1126 1.4481 -13.0428 21.3499 -2.4689 0.0000 0.0000 28.5825 -6.7639 4.0468 -0.4796 7.1250 -0.0000 -0.0000 14.9094 -25.8514 7.1470
0.00 0.00 0.00 177.9370 -4.7542 -172.9280 0.0000 0.0000 0.0000 -27.2619 1.3066 -18.4227 2.4186 9.6883 27.9732 0.3794 -11.2746 -12.6340 0.0000 0.0151 0.0416 0.0000 0.0000 0.0000 14.1473 -0.4501 -31.2123 -13.6587 -19.0072 71.1593 -0.3574 -5.1093 -14.3347 -0.0079 -0.5755 1.5813 -4.6727 0.3126 -1.0633 -0.2377 0.4116 -1.1447 2.3769 0.2252 -0.6124 -9.6397 -3.2700 -22.2795 3.5143 -2.6850 24.5105 2.4397 -1.8348 11.9452 0.0000 -0.0000 0.0000 -83.7928 -28.9014 49.2262 29.4915 -40.4535 -11.0782 -0.0000 -0.0000 0.8637 8.7601 35.2988 5.0883 -7.1250 0.0000 -0.0000 -30.1171 63.0858 -13.8632 0.0000 -0.0000 0.0000 41.0358 50.9274 -9.4039 -19.6257 30.1887 -5.3418 0.0000 -0.0000 -1.0023 -4.1324 -2.2515 0.1626 7.1250 -0.0000 -0.0000 17.8743 -31.8745 5.9984
0.00 0.00 0.00 176.8970 -8.8255 -172.4030 0.0000 0.0000 0.0000 -27.9023 0.9492 -10.6340 1.8788 8.6089 24.5795 0.7405 -10.8093 -16.0439 0.0738 -1.7524 -4.8219 0.0000 0.0000 0.0000 12.7944 1.7546 -38.5458 -9.2709 -16.9789 57.0225 -0.6750 -4.8484 -18.0340 -0.0072 0.5467 -1.5022 -5.5758 -0.4893 -1.6819 -0.3098 -0.6267 -1.2396 2.7978 -0.2998 -0.2784 -10.0569 -4.1352 -21.7719 5.0060 -4.1561 23.5332 2.8215 -2.2936 11.6260 0.0000 0.0000 0.0000 -83.5382 -28.1121 47.5526 39.9538 -48.0425 -18.4049 -0.0000 0.0000 -0.4421 8.5739 32.7679 4.6651 -7.1250 0.0000 -0.0000 -27.7140 60.8629 -11.2050 0.0000 0.0000 0.0000 28.5279 52.0759 -19.5717 -23.5777 34.7145 -7.4647 0.0000 -0.0000 -17.2728 -2.2331 -6.1862 0.2408 7.1250 -0.0000 -0.0000 20.2333 -35.5071 4.9782
0.00 0.00 0.00 176.0650 -9.1985 -171.5720 0.0000 0.0000 0.0000 -28.1225 4.0093 -4.1607 0.9823 6.3087 17.6826 0.6572 -11.5048 -15.4729 0.0277 -1.0745 -2.9538 0.0000 0.0000 0.0000 11.4103 4.6105 -40.2447 -4.9855 -13.3675 40.7600 -0.2785 -7.5241 -15.4358 -0.0065 -0.5217 1.4334 -6.6066 -0.6577 -2.2207 -0.4603 -0.8119 -1.2635 3.2106 -0.4022 0.0242 -9.7516 -4.5934 -21.6487 5.6377 -4.9431 22.1002 2.8654 -2.4848 11.1379 -0.0000 -0.0000 0.0000 -81.9270 -25.8393 45.8970 45.3400 -50.9340 -22.5024 -0.0000 0.0000 -1.1056 10.5565 31.6520 5.5854 -7.1250 0.0000 -0.0000 -24.6604 60.3477 -9.5724 -0.0000 -0.0000 0.0000 27.0714 51.2269 -21.9301 -26.3885 37.5898 -9.1236 0.0000 -0.0000 -25.3350 -0.1360 -9.1661 0.0217 7.1250 -0.0000 -0.0000 22.7364 -38.1367 4.0991
0.00 0.00 0.00 175.6110 -9.9454 -170.9720 0.0000 0.0000 0.0000 -26.6060 8.0508 8.7063 0.0298 1.1139 3.0621 0.2056 -11.3670 -10.6976 0.2283 -3.0757 -8.4895 0.0000 0.0000 0.0000 10.7404 7.2213 -39.8410 -1.7337 -8.2879 23.5919 -0.5950 -7.1095 -18.8673 -0.3914 4.0172 -11.1251 -7.4916 -1.2805 -3.0305 -0.3377 -1.5490 -1.1048 3.7923 -0.7974 0.7432 -10.2612 -4.9706 -21.6688 7.2688 -5.6261 21.0148 3.4288 -2.6066 10.8684 -0.0000 -0.0000 0.0000 -80.1051 -20.2656 43.0707 43.4278 -49.9746 -21.0278 -0.0000 0.0000 -1.9169 12.1191 31.3339 6.3715 -7.1250 0.0000 -0.0000 -22.7612 60.4289 -8.8316 -0.0000 -0.0000 0.0000 35.8265 46.0069 -12.4147 -30.0330 40.9217 -11.4312 0.0000 -0.0000 -32.2014 4.0308 -13.5246 -0.9441 7.1250 -0.0000 -0.0000 27.6536 -41.7142 2.4525
